<svg xmlns="http://www.w3.org/2000/svg" width="31" height="31" viewBox="0 0 31 31">
    <g fill="none" fill-rule="evenodd">
        <path fill="#B7B7B7" fill-rule="nonzero" d="M15.5 0C6.944 0 0 6.944 0 15.5 0 24.056 6.944 31 15.5 31 24.056 31 31 24.056 31 15.5 31 6.944 24.056 0 15.5 0zm0 4.65a4.644 4.644 0 0 1 4.65 4.65 4.644 4.644 0 0 1-4.65 4.65 4.644 4.644 0 0 1-4.65-4.65 4.644 4.644 0 0 1 4.65-4.65zm0 22.01a11.16 11.16 0 0 1-9.3-4.991c.046-3.085 6.2-4.774 9.3-4.774 3.084 0 9.253 1.69 9.3 4.774a11.16 11.16 0 0 1-9.3 4.991z"/>
        <path d="M-4-4h38v38H-4z"/>
    </g>
</svg>
